<?xml version="1.0" standalone="no"?>
<!DOCTYPE svg PUBLIC "-//W3C//DTD SVG 20010904//EN"
 "http://www.w3.org/TR/2001/REC-SVG-20010904/DTD/svg10.dtd">
<svg version="1.0" xmlns="http://www.w3.org/2000/svg"
 width="900.000000pt" height="558.000000pt" viewBox="0 0 900.000000 558.000000"
 preserveAspectRatio="xMidYMid meet">

<g transform="translate(0.000000,558.000000) scale(0.100000,-0.100000)"
fill="#FFFFFF" stroke="none">
<path d="M3470 4705 l0 -465 -130 0 -130 0 0 -530 0 -530 130 0 130 0 0 -460
0 -460 100 0 100 0 0 460 0 460 200 0 200 0 0 -460 0 -460 100 0 100 0 0 460
0 460 230 0 c217 0 230 -1 222 -17 -22 -41 -1162 -2743 -1162 -2753 0 -7 111
-9 362 -8 l363 3 747 1900 c411 1045 750 1908 754 1918 5 16 -35 17 -755 17
l-761 0 0 465 0 465 -100 0 -100 0 0 -465 0 -465 -197 2 -198 3 -3 463 -2 462
-100 0 -100 0 0 -465z"/>
</g>
</svg>
